<svg width="64" height="64" viewBox="0 0 64 64" fill="none" xmlns="http://www.w3.org/2000/svg">
<line x1="44.6006" y1="42.9742" x2="51.2606" y2="49.8272" stroke="black" stroke-width="6" stroke-linecap="round"/>
<path d="M47 29C47 31.3638 46.5344 33.7044 45.6298 35.8883C44.7252 38.0722 43.3994 40.0565 41.7279 41.7279C40.0565 43.3994 38.0722 44.7252 35.8883 45.6298C33.7044 46.5344 31.3638 47 29 47C26.6362 47 24.2956 46.5344 22.1117 45.6298C19.9278 44.7252 17.9435 43.3994 16.2721 41.7279C14.6006 40.0565 13.2748 38.0722 12.3702 35.8883C11.4656 33.7044 11 31.3638 11 29C11 26.6362 11.4656 24.2956 12.3702 22.1117C13.2748 19.9278 14.6006 17.9435 16.2721 16.2721C17.9435 14.6006 19.9278 13.2748 22.1117 12.3702C24.2956 11.4656 26.6362 11 29 11C31.3638 11 33.7044 11.4656 35.8883 12.3702C38.0722 13.2748 40.0565 14.6006 41.7279 16.2721C43.3994 17.9435 44.7252 19.9278 45.6298 22.1117C46.5344 24.2956 47 26.6362 47 29L47 29Z" stroke="black" stroke-width="6"/>
</svg>
