<svg width="64" height="64" viewBox="0 0 64 64" fill="none" xmlns="http://www.w3.org/2000/svg">
<rect width="64" height="64" rx="32" fill="#F8F8F8"/>
<path d="M49.0667 32C49.0667 28.3959 47.9257 24.8843 45.8072 21.9685C43.6888 19.0527 40.7016 16.8824 37.2739 15.7687C33.8462 14.6549 30.1539 14.6549 26.7261 15.7687C23.2984 16.8824 20.3112 19.0527 18.1928 21.9685" stroke="black" stroke-width="4.26667" stroke-linecap="round" stroke-linejoin="round"/>
<path d="M14.9333 32C14.9333 35.6041 16.0743 39.1158 18.1928 42.0316C20.3112 44.9474 23.2984 47.1176 26.7261 48.2314C30.1539 49.3451 33.8462 49.3451 37.2739 48.2314C40.7016 47.1176 43.6888 44.9474 45.8072 42.0316" stroke="black" stroke-width="4.26667" stroke-linecap="round" stroke-linejoin="round"/>
<path d="M10.6666 31.9352L15.6093 28.4742L19.0703 33.417" stroke="black" stroke-width="4.26667" stroke-linecap="round" stroke-linejoin="round"/>
<path d="M53.4113 32.4151L48.4686 35.876L45.0076 30.9333" stroke="black" stroke-width="4.26667" stroke-linecap="round" stroke-linejoin="round"/>
</svg>
